<svg width="200" height="200" viewBox="0 0 200 200" fill="none" xmlns="http://www.w3.org/2000/svg">
  <!-- Background -->
  <rect width="200" height="200" rx="40" fill="url(#gradient)"/>
  
  <!-- S letter -->
  <path d="M60 70 C60 55, 80 50, 100 50 C120 50, 140 55, 140 70 C140 85, 120 90, 100 95 C80 100, 60 105, 60 120 C60 135, 80 145, 100 145 C120 145, 140 140, 140 125" 
        stroke="white" 
        stroke-width="12" 
        stroke-linecap="round" 
        fill="none"/>
  
  <!-- Minecraft pickaxe accent -->
  <rect x="150" y="150" width="8" height="30" fill="white" opacity="0.8" transform="rotate(-45 154 165)"/>
  <rect x="140" y="145" width="20" height="8" fill="white" opacity="0.8" transform="rotate(-45 150 149)"/>
  
  <defs>
    <linearGradient id="gradient" x1="0%" y1="0%" x2="100%" y2="100%">
      <stop offset="0%" stop-color="#6366f1"/>
      <stop offset="100%" stop-color="#8b5cf6"/>
    </linearGradient>
  </defs>
</svg>
